<svg width="25" height="25" viewBox="0 0 25 25" fill="none" xmlns="http://www.w3.org/2000/svg">
<path d="M23.0685 3.27592C22.6935 2.95792 22.1045 2.91242 21.4955 3.15692H21.4945C20.854 3.41392 3.36404 10.9159 2.65204 11.2224C2.52254 11.2674 1.39154 11.6894 1.50804 12.6294C1.61204 13.4769 2.52104 13.8279 2.63204 13.8684L7.07854 15.3909C7.37354 16.3729 8.46104 19.9959 8.70154 20.7699C8.85154 21.2524 9.09604 21.8864 9.52454 22.0169C9.90054 22.1619 10.2745 22.0294 10.5165 21.8394L13.235 19.3179L17.6235 22.7404L17.728 22.8029C18.026 22.9349 18.3115 23.0009 18.584 23.0009C18.7945 23.0009 18.9965 22.9614 19.1895 22.8824C19.847 22.6124 20.11 21.9859 20.1375 21.9149L23.4155 4.87642C23.6155 3.96642 23.3375 3.50342 23.0685 3.27592ZM11 15.9999L9.50004 19.9999L8.00004 14.9999L19.5 6.49992L11 15.9999Z" fill="#424E44"/>
</svg>
